<svg xmlns="http://www.w3.org/2000/svg" viewBox="0 0 32 32"><g id="camera"><path d="M26.14,9H23.42A9.48,9.48,0,0,0,9.58,9H5.86A3.86,3.86,0,0,0,2,12.86V24.14A3.86,3.86,0,0,0,5.86,28H26.14A3.86,3.86,0,0,0,30,24.14V12.86A3.86,3.86,0,0,0,26.14,9ZM28,24.14A1.86,1.86,0,0,1,26.14,26H5.86A1.86,1.86,0,0,1,4,24.14V12.86A1.86,1.86,0,0,1,5.86,11H10a1,1,0,0,0,.76-.35,7.48,7.48,0,0,1,11.42,0A1,1,0,0,0,23,11h3.17A1.86,1.86,0,0,1,28,12.86Z"/><path d="M16.5,11A6.5,6.5,0,1,0,23,17.5,6.51,6.51,0,0,0,16.5,11Zm0,11A4.5,4.5,0,1,1,21,17.5,4.51,4.51,0,0,1,16.5,22Z"/><path d="M6,8H8A1,1,0,0,0,8,6H6A1,1,0,0,0,6,8Z"/><circle cx="25" cy="14" r="1"/></g></svg>